<?xml version="1.0" encoding="UTF-8" standalone="no"?>
<svg
   version="1.1"
   width="276.76297"
   height="379.08112"
   id="svg9"
   sodipodi:docname="logo.svg"
   inkscape:version="1.4.2 (f4327f4, 2025-05-13)"
   xmlns:inkscape="http://www.inkscape.org/namespaces/inkscape"
   xmlns:sodipodi="http://sodipodi.sourceforge.net/DTD/sodipodi-0.dtd"
   xmlns="http://www.w3.org/2000/svg"
   xmlns:svg="http://www.w3.org/2000/svg">
  <defs
     id="defs9" />
  <sodipodi:namedview
     id="namedview9"
     pagecolor="#505050"
     bordercolor="#ffffff"
     borderopacity="1"
     inkscape:showpageshadow="0"
     inkscape:pageopacity="0"
     inkscape:pagecheckerboard="1"
     inkscape:deskcolor="#505050"
     inkscape:zoom="2.641983"
     inkscape:cx="135.88278"
     inkscape:cy="146.67014"
     inkscape:window-width="3840"
     inkscape:window-height="2131"
     inkscape:window-x="-9"
     inkscape:window-y="-9"
     inkscape:window-maximized="1"
     inkscape:current-layer="svg9" />
  <path
     d="m 20.909958,0.04286503 c 1.047137,-0.00624 2.094274,-0.01247993 3.173143,-0.01890898 3.502285,-0.01593119 7.003873,-0.0033247 10.506163,0.0092654 2.513437,-0.005421 5.026871,-0.01254353 7.540298,-0.02124024 6.113928,-0.0163444 12.227599,-0.01395459 18.34153,-0.0023494 4.969287,0.0090413 9.938519,0.01025535 14.907812,0.0059047 0.707812,-6.1293e-4 1.415624,-0.0012259 2.144884,-0.0018574 1.437987,-0.0012789 2.875974,-0.0025758 4.313961,-0.0038904 13.476298,-0.01139964 26.952491,0.0016986 40.428771,0.02320147 11.56011,0.01787433 23.12006,0.01476298 34.68017,-0.003675 13.4303,-0.02141096 26.86052,-0.0298315666 40.29084,-0.01755095 1.43233,0.0012742 2.86466,0.0025317 4.29699,0.0037723 0.7047,6.171e-4 1.4094,0.0012342 2.13546,0.00187 4.9631,0.0034519 9.92615,-0.002372 14.88924,-0.01178822 6.68053,-0.01239629 13.36071,-0.0035582 20.04122,0.01957702 2.45341,0.0052944 4.90684,0.003761 7.36023,-0.0050507 3.34567,-0.01090955 6.69036,0.0027539 10.03596,0.02272034 0.97383,-0.0089229 1.94766,-0.01784577 2.951,-0.02703905 6.94519,0.08055028 10.01427,1.57988139 15.25467,6.09747369 2.49828,3.0242255 2.52457,6.5202874 2.46875,10.3085934 -0.62167,4.705709 -2.98683,8.072933 -6.65625,11.066407 -3.04568,1.232776 -5.36821,1.13876 -8.625,1.0625 0.0232,1.102148 0.0464,2.204296 0.0703,3.339843 0.5823,39.671929 -11.83324,73.507647 -39.53711,102.115717 -6.65028,6.69899 -13.60808,13.07433 -20.97071,18.98193 -17.84584,13.86616 -17.84584,13.86616 -29.5625,32.5625 -0.73006,7.88464 2.16575,13.59371 6.88282,19.63672 6.47822,7.23123 13.92287,13.68054 21.49218,19.73828 29.70498,23.79925 54.61098,54.35436 60.28516,93.04688 0.48864,5.14475 0.77815,10.29171 1.02734,15.45312 0.0487,0.99983 0.0973,1.99966 0.14746,3.02979 0.19104,4.84866 0.24044,9.32464 -0.83496,14.09521 0.86625,-0.0825 1.7325,-0.165 2.625,-0.25 5.44458,0.40331 8.26082,2.95989 11.75,7 1.94574,3.89148 2.43288,7.02293 1.625,11.25 -1.31018,3.51718 -3.08956,6.23649 -5.9973,8.67499 -4.4362,1.95758 -8.55954,1.74197 -13.35827,1.71269 -1.0536,0.005 -2.10719,0.0108 -3.19272,0.0163 -3.53602,0.0143 -7.07167,0.007 -10.60771,6e-5 -2.53285,0.006 -5.06569,0.0127 -7.59853,0.0208 -6.16897,0.0161 -12.3378,0.018 -18.50678,0.0128 -5.01415,-0.004 -10.02826,-0.003 -15.0424,0.003 -0.71363,7.5e-4 -1.42727,0.001 -2.16253,0.002 -1.44974,0.002 -2.89948,0.003 -4.34923,0.005 -13.59549,0.0137 -27.19092,0.008 -40.78641,-0.003 -12.43728,-0.01 -24.87441,0.003 -37.31167,0.0269 -12.77161,0.0244 -25.543141,0.034 -38.314767,0.0274 -7.169904,-0.003 -14.339693,-0.001 -21.50958,0.0163 -6.741224,0.0162 -13.482118,0.0115 -20.22335,-0.007 -2.475984,-0.004 -4.951989,-5.5e-4 -7.427954,0.01 -3.37641,0.0131 -6.751869,0.002 -10.128238,-0.016 -0.982977,0.01 -1.965954,0.0192 -2.978719,0.0291 -5.822615,-0.063 -9.0380917,-0.71145 -13.5038407,-4.53032 -3.16362796,-3.69089 -3.51601296,-7.07818 -3.35937496,-11.78515 0.557308,-3.43471 2.16352196,-5.57982 4.35937496,-8.21485 0.665156,-0.80244 0.665156,-0.80244 1.34375,-1.62109 2.134631,-1.77718 3.598954,-1.86751 6.3437497,-2.06641 0.808243,-0.0657 1.616485,-0.13148 2.449219,-0.19921 0.614883,-0.0374 1.229766,-0.0748 1.863281,-0.11329 -0.09539,-0.75539 -0.190781,-1.51078 -0.289062,-2.28906 -3.211201,-31.88797 6.183603,-64.2608 26.105468,-89.33594 9.357359,-11.35049 19.916548,-21.92522 31.183594,-31.375 4.115813,-3.50382 8.216445,-7.02528 12.312012,-10.55273 1.51467,-1.29866 3.040113,-2.58474 4.566894,-3.86914 7.208761,-6.20724 14.594023,-13.35871 15.433593,-23.26563 -0.23168,-10.59944 -8.802543,-17.97574 -15.95703,-24.85546 -4.409306,-4.06868 -8.927174,-7.95191 -13.605469,-11.70704 -6.688685,-5.40276 -12.909809,-11.28252 -19.128906,-17.2124 -1.297941,-1.23109 -2.613035,-2.44408 -3.933594,-3.65088 C 32.201172,112.82266 20.541098,85.463619 16.389801,57.5508 16.192575,56.288163 16.192575,56.288163 15.991364,55.000018 14.875467,46.268875 15.308636,37.334657 15.389801,28.5508 14.003415,28.60301 14.003415,28.60301 12.58902,28.656268 8.3933473,28.517949 6.6025263,27.192373 3.3898013,24.5508 0.20584634,20.836186 -0.08382966,17.488339 0.11245734,12.761737 0.53404434,9.4009163 1.4065093,7.3018182 3.3898013,4.5507996 9.2355893,0.33701442 13.824884,-0.02220219 20.909958,0.04286503 Z M 34.389801,29.5508 c -6.19421,12.38842 0.638655,35.640705 4.625,48.125 8.608532,25.19338 27.15177,45.55973 47.789063,61.79688 3.832079,3.07956 7.416771,6.41208 11.027343,9.74609 2.183143,1.98982 4.411213,3.88414 6.683593,5.76953 10.56295,9.21541 17.10761,19.04899 18.74219,32.97266 0.41398,11.1895 -4.29729,20.45935 -11.67676,28.58154 -7.34211,7.76874 -14.976129,15.10778 -23.385741,21.71534 -5.600872,4.57898 -10.802868,9.61056 -16.032715,14.60449 -1.598615,1.52329 -3.209486,3.03232 -4.822754,4.54004 -20.515766,19.67424 -33.280109,46.50852 -34.199219,75.04687 -0.03158,2.01288 -0.05252,4.02596 -0.0625,6.03906 -0.0056,0.96624 -0.01112,1.93247 -0.01685,2.92798 -0.254369,5.09833 -0.254369,5.09833 2.329346,9.13452 2.453997,0.1952 4.794915,0.26496 7.249863,0.24724 0.756011,0.002 1.512022,0.005 2.290942,0.007 2.547601,0.006 5.094955,-0.003 7.642545,-0.0116 1.821661,0.001 3.643322,0.003 5.464981,0.006 4.963842,0.005 9.927595,-0.003 14.891427,-0.013 5.204158,-0.009 10.408314,-0.007 15.612479,-0.007 8.759084,-9.3e-4 17.518136,-0.01 26.277206,-0.0233 10.08574,-0.0156 20.17144,-0.021 30.25719,-0.0203 10.76733,6.8e-4 21.53463,-0.006 32.30195,-0.0155 3.08228,-0.002 6.16456,-0.003 9.24684,-0.003 4.88289,-10e-4 9.76576,-0.007 14.64864,-0.0172 1.77712,-0.003 3.55425,-0.004 5.33137,-0.004 11.95935,0.002 23.84757,-0.4122 35.78456,-1.14613 5.98212,-21.91143 -2.79605,-48.90538 -13.50781,-67.8789 -9.61268,-16.28418 -23.90691,-30.21879 -38.68359,-41.82422 -6.23087,-5.09562 -11.98964,-10.74146 -17.8086,-16.29688 -0.51578,-0.4871 -1.03157,-0.9742 -1.56299,-1.47607 -10.21064,-9.66396 -16.39497,-18.4797 -16.93701,-32.83643 0.37527,-15.63624 9.37905,-26.00395 20.09766,-36.48437 3.35408,-3.07594 6.88635,-5.90219 10.4375,-8.74609 3.91099,-3.24113 7.61424,-6.67894 11.32568,-10.14454 2.96042,-2.76411 5.94376,-5.48219 9.01416,-8.125 21.88634,-19.10494 36.12595,-45.306214 38.50391,-74.472657 0.60138,-10.94831 0.60138,-10.94831 -0.87891,-21.714843 -68.64,0 -137.27999,0 -207.999993,0 z"
     fill="#000000"
     id="path1"
     style="fill:#1f5f7f;fill-opacity:1;stroke:none;stroke-opacity:1" />
  <path
     d="m 87.200588,108.15261 c 10.787154,0.15564 21.429612,2.36311 32.029052,4.20678 9.28263,1.58898 18.30791,2.38566 27.72266,2.37891 0.95672,6.4e-4 1.91345,0.001 2.89917,0.002 5.85374,-0.0429 11.55246,-0.40132 17.35083,-1.18945 5.84086,-0.78929 11.60373,-1.27401 17.5,-1.375 1.06795,-0.0387 1.06795,-0.0387 2.15747,-0.0781 3.55024,-0.0137 5.21868,0.19915 8.0105,2.47656 0.50144,0.65227 1.00289,1.30453 1.51953,1.97657 -2.94534,10.47231 -14.49045,18.22974 -22.4375,24.88672 -10.58344,8.87976 -19.10013,17.40144 -25.55786,29.75683 -1.76028,3.34448 -2.80051,5.22036 -6.00464,7.35645 -4.73809,0.54371 -6.94719,0.58957 -11.125,-1.75 -3.53627,-3.35566 -5.20509,-7.78414 -7.25782,-12.12891 -5.62598,-10.85787 -15.39748,-19.84817 -24.867183,-27.37109 -4.688985,-3.75119 -8.995508,-7.77192 -13.25,-12 -0.599736,-0.59071 -1.199472,-1.18143 -1.817382,-1.79004 -3.069538,-3.09053 -5.756516,-5.9961 -7.682618,-9.95996 0.730421,-6.57379 5.114508,-5.33775 10.810791,-5.39819 z M 113.6398,131.7383 c -1.5343,1.80898 -1.5343,1.80898 -1,4.4375 0.52745,2.30624 0.52745,2.30624 1.75,3.375 2.4581,0.25008 2.4581,0.25008 5,0 2.23845,-1.82916 2.23845,-1.82916 2.3125,-4.5 -0.10313,-0.825 -0.20625,-1.65 -0.3125,-2.5 -3.09994,-2.06663 -4.52941,-2.99791 -7.75,-0.8125 z m 43.75,-1.1875 c -1.85302,1.69277 -1.85302,1.69277 -3,4 0.21717,2.208 0.21717,2.208 1,4 2.90073,0.67801 2.90073,0.67801 6,1 2.23845,-1.82916 2.23845,-1.82916 2.3125,-4.5 -0.10313,-0.825 -0.20625,-1.65 -0.3125,-2.5 -2.8151,-2.27735 -2.8151,-2.27735 -6,-2 z m -22.75,2.1875 c -1.5343,1.80898 -1.5343,1.80898 -1,4.4375 0.52745,2.30624 0.52745,2.30624 1.75,3.375 2.4581,0.25008 2.4581,0.25008 5,0 0.66,-0.66 1.32,-1.32 2,-2 -0.32972,-3.29715 -0.62269,-4.62269 -3,-7 -2.93874,-0.28075 -2.93874,-0.28075 -4.75,1.1875 z m -9.25,11.8125 c -2.33391,2.78114 -2.33391,2.78114 -1.625,5.6875 0.20625,0.76312 0.4125,1.52625 0.625,2.3125 2.35367,0.68782 2.35367,0.68782 5,1 0.99,-0.66 1.98,-1.32 3,-2 0.41666,-2.5 0.41666,-2.5 0,-5 -1.82916,-2.23845 -1.82916,-2.23845 -4.5,-2.3125 -0.825,0.10312 -1.65,0.20625 -2.5,0.3125 z m 19.1875,1.25 c -1.41323,1.68459 -1.41323,1.68459 -1,3.8125 0.7472,2.12462 0.7472,2.12462 2.8125,3.9375 2.6028,-0.32042 2.6028,-0.32042 5,-1 0.68782,-2.35368 0.68782,-2.35368 1,-5 -0.66,-0.99 -1.32,-1.98 -2,-3 -3.81815,-0.37849 -3.81815,-0.37849 -5.8125,1.25 z m -9.1875,13.75 c -2.286,2.70332 -2.286,2.70332 -1.6875,5.125 0.53328,1.86094 0.53328,1.86094 1.6875,2.875 3,0.16667 3,0.16667 6,0 1.27003,-1.0531 1.27003,-1.0531 1.1875,-3.4375 0.0809,-2.72985 0.0809,-2.72985 -2.1875,-4.5625 -2.5,-0.41667 -2.5,-0.41667 -5,0 z"
     fill="#000000"
     id="path2"
     style="fill:#1f5f7f;fill-opacity:1" />
  <path
     d="m 137.3898,182.5508 c 3.17442,1.09462 3.98914,1.98177 5.75,4.9375 1.25,3.0625 1.25,3.0625 1.25,6.0625 -3.63,0 -7.26,0 -11,0 -0.33,-0.66 -0.66,-1.32 -1,-2 0.74219,-1.91016 0.74219,-1.91016 1.875,-4.0625 0.36867,-0.71286 0.73734,-1.42571 1.11719,-2.16016 1.00781,-1.77734 1.00781,-1.77734 2.00781,-2.77734 z"
     fill="#000000"
     id="path3"
     style="fill:#1f5f7f;fill-opacity:1" />
  <path
     d="m 137.3898,202.5508 c 0.99,0 1.98,0 3,0 0.84114,1.43294 1.67266,2.87154 2.5,4.3125 0.46406,0.8005 0.92812,1.60101 1.40625,2.42578 1.09375,2.26172 1.09375,2.26172 1.09375,5.26172 -4.29,0 -8.58,0 -13,0 -0.33,-0.66 -0.66,-1.32 -1,-2 1.10937,-2.38282 1.10937,-2.38282 2.75,-5.125 0.79664,-1.36512 0.79664,-1.36512 1.60937,-2.75782 0.54141,-0.69867 1.08282,-1.39734 1.64063,-2.11718 z"
     fill="#000000"
     id="path4"
     style="fill:#1f5f7f;fill-opacity:1" />
  <path
     d="m 126.3898,225.5508 c 3.09969,1.31541 4.62427,2.4203 6.25,5.375 0.33515,0.58523 0.67031,1.17046 1.01562,1.77343 0.73438,1.85157 0.73438,1.85157 0.73438,5.85157 -4.29,0 -8.58,0 -13,0 -0.33,-0.66 -0.66,-1.32 -1,-2 1.21484,-2.60157 1.21484,-2.60157 2.9375,-5.625 0.84885,-1.50434 0.84885,-1.50434 1.71484,-3.03907 0.44473,-0.77086 0.88946,-1.54172 1.34766,-2.33593 z"
     fill="#000000"
     id="path5"
     style="fill:#1f5f7f;fill-opacity:1" />
  <path
     d="m 148.3898,225.5508 c 3.64188,1.21395 3.91746,2.09006 5.6875,5.375 0.43699,0.79148 0.87398,1.58296 1.32422,2.39843 0.98828,2.22657 0.98828,2.22657 0.98828,5.22657 -4.62,0 -9.24,0 -14,0 0.84928,-4.24641 1.32343,-5.9252 3.5625,-9.3125 0.45504,-0.69739 0.91008,-1.39477 1.3789,-2.11329 0.34934,-0.51949 0.69868,-1.03898 1.0586,-1.57421 z"
     fill="#000000"
     id="path6"
     style="fill:#1f5f7f;fill-opacity:1" />
  <path
     d="m 100.3898,241.5508 c 1,3 1,3 0.20703,5.20703 -4.282921,8.00198 -9.797539,14.44037 -15.782227,21.18408 -10.514171,11.87258 -19.514879,25.96986 -23.780274,41.37451 -0.242182,0.85054 -0.484365,1.70108 -0.733886,2.57739 -0.472448,1.69504 -0.91684,3.39822 -1.329102,5.10889 -1.610615,5.79596 -1.610615,5.79596 -4.458008,8.00171 -3.220577,1.67841 -5.460029,2.54639 -9.123535,2.54639 4.261299,-34.26795 24.32498,-61.55524 50.8125,-82.8125 1.389198,-1.07117 2.78223,-2.13752 4.187502,-3.1875 z"
     fill="#000000"
     id="path7"
     style="fill:#1f5f7f;fill-opacity:1" />
  <path
     d="m 137.3898,249.5508 c 3.40136,1.37912 4.69605,2.62611 6.25,5.9375 0.33515,0.68964 0.67031,1.37929 1.01562,2.08984 0.73438,1.97266 0.73438,1.97266 0.73438,4.97266 -4.62,0 -9.24,0 -14,0 3,-9.71429 3,-9.71429 6,-13 z"
     fill="#000000"
     id="path8"
     style="fill:#1f5f7f;fill-opacity:1" />
  <path
     d="m 147.22183,278.31642 c 6.21566,3.539 11.13833,9.16566 16.10547,14.23437 13.28957,13.39484 29.59607,23.97032 45.55053,33.88184 13.86778,8.65188 13.86778,8.65188 17.51197,14.11816 -58.08,0 -116.16,0 -176.000003,0 1.973356,-3.94671 2.579599,-4.71271 6.050781,-6.96094 0.833621,-0.54704 1.667241,-1.09409 2.526123,-1.65771 0.902747,-0.5796 1.805493,-1.15919 2.735596,-1.75635 1.908913,-1.24991 3.817766,-2.49991 5.726562,-3.75 1.475816,-0.95906 1.475816,-0.95906 2.981446,-1.9375 18.034708,-11.72758 35.328365,-23.52349 50.104495,-39.3125 7.51931,-7.59747 16.41053,-11.08154 26.70703,-6.85937 z"
     fill="#000000"
     id="path9"
     style="fill:#1f5f7f;fill-opacity:1" />
</svg>
